<svg width="545" height="523" viewBox="0 0 545 523" fill="none" xmlns="http://www.w3.org/2000/svg">
<path d="M34.3532 466.35L31.4176 474.33L26.2915 467.542L18.3207 464.602L25.0956 459.478L28.0312 451.498L33.1545 458.275L41.1254 461.216L34.3532 466.35Z" fill="white"/>
<path d="M409.754 477.508L406.818 485.488L401.692 478.7L393.721 475.76L400.496 470.635L403.432 462.656L408.555 469.433L416.526 472.374L409.754 477.508Z" fill="white"/>
<path d="M394.73 22.598L395.559 26.1384L392.137 24.9258L388.611 25.7566L389.814 22.336L388.984 18.8031L392.406 20.0082L395.933 19.1774L394.73 22.598Z" fill="white"/>
<path d="M535.753 74.8022L536.582 78.3426L533.16 77.1301L529.634 77.9609L530.837 74.5403L530.007 71.0074L533.429 72.2125L536.956 71.3816L535.753 74.8022Z" fill="white"/>
<path d="M542.849 40.3565L543.678 43.8969L540.256 42.6844L536.73 43.5152L537.933 40.0946L537.103 36.5617L540.525 37.7668L544.052 36.9359L542.849 40.3565Z" fill="white"/>
<path d="M423.979 435.222L424.809 438.763L421.387 437.55L417.86 438.381L419.063 434.961L418.234 431.428L421.656 432.633L425.182 431.802L423.979 435.222Z" fill="white"/>
<path d="M192.804 519.198L193.633 522.738L190.211 521.525L186.685 522.356L187.888 518.936L187.058 515.403L190.48 516.608L194.007 515.777L192.804 519.198Z" fill="white"/>
<path d="M172.225 439.401L173.055 442.941L169.633 441.729L166.106 442.56L167.309 439.139L166.48 435.606L169.902 436.811L173.428 435.98L172.225 439.401Z" fill="#3C3C42"/>
<path d="M6.1194 217.039L6.94876 220.579L3.52669 219.367L0 220.198L1.20296 216.777L0.373589 213.244L3.79567 214.449L7.32234 213.618L6.1194 217.039Z" fill="white"/>
<path d="M94.9229 120.792L95.7523 124.333L92.3302 123.12L88.8035 123.951L90.0065 120.53L89.1771 116.997L92.5992 118.202L96.1259 117.372L94.9229 120.792Z" fill="white"/>
<path d="M20.3117 188.672L21.141 192.212L17.7189 191L14.1923 191.831L15.3952 188.41L14.5659 184.877L17.9879 186.082L21.5146 185.251L20.3117 188.672Z" fill="white"/>
<path d="M446.316 17.876L443.38 25.8556L438.254 19.068L430.283 16.1273L437.058 11.0031L439.994 3.02347L445.117 9.80089L453.088 12.7416L446.316 17.876Z" fill="white"/>
<path d="M154.61 497.151C155.257 497.525 156.085 497.303 156.458 496.655C156.832 496.007 156.61 495.179 155.963 494.805C155.316 494.431 154.488 494.653 154.115 495.3C153.741 495.948 153.963 496.777 154.61 497.151Z" fill="white"/>
<path d="M483.902 325.614C484.549 325.988 485.376 325.766 485.75 325.118C486.123 324.47 485.902 323.642 485.254 323.268C484.607 322.894 483.78 323.116 483.406 323.763C483.033 324.411 483.254 325.24 483.902 325.614Z" fill="white"/>
<path d="M17.8982 226.572C18.5454 226.946 19.3728 226.724 19.7464 226.076C20.12 225.428 19.8982 224.6 19.251 224.226C18.6038 223.852 17.7763 224.074 17.4028 224.722C17.0292 225.369 17.251 226.198 17.8982 226.572Z" fill="white"/>
<path d="M135.305 516.62C136.603 517.37 138.262 516.925 139.011 515.626C139.76 514.326 139.316 512.665 138.018 511.914C136.72 511.164 135.06 511.609 134.311 512.908C133.562 514.208 134.007 515.869 135.305 516.62Z" fill="white"/>
<path d="M472.953 345.082C474.251 345.833 475.91 345.388 476.659 344.089C477.409 342.789 476.964 341.128 475.666 340.377C474.368 339.627 472.708 340.072 471.959 341.371C471.21 342.671 471.655 344.332 472.953 345.082Z" fill="white"/>
<path d="M65.0391 84.4101C66.337 85.1604 67.9965 84.7154 68.7457 83.4161C69.4949 82.1168 69.05 80.4553 67.7521 79.705C66.4542 78.9547 64.7947 79.3997 64.0455 80.699C63.2963 81.9983 63.7412 83.6598 65.0391 84.4101Z" fill="white"/>
<path d="M459.115 498.77L456.179 506.75L451.053 499.962L443.083 497.021L449.857 491.897L452.793 483.917L457.916 490.695L465.887 493.636L459.115 498.77Z" fill="#3C3C42"/>
<path d="M165.628 58.0537L162.693 66.0333L157.567 59.2457L149.596 56.3051L156.371 51.1808L159.306 43.2012L164.43 49.9787L172.401 52.9194L165.628 58.0537Z" fill="#3C3C42"/>
<path d="M271.465 3.79486L272.295 7.33525L268.872 6.1227L265.346 6.95352L266.549 3.5329L265.719 0L269.141 1.20511L272.668 0.374246L271.465 3.79486Z" fill="#3C3C42"/>
<path d="M534.437 469.555L535.267 473.096L531.844 471.883L528.318 472.714L529.521 469.293L528.691 465.76L532.113 466.965L535.64 466.134L534.437 469.555Z" fill="#3C3C42"/>
<path d="M468.544 466.516L469.373 470.056L465.951 468.844L462.424 469.675L463.627 466.254L462.798 462.721L466.22 463.926L469.747 463.095L468.544 466.516Z" fill="#3C3C42"/>
<path d="M128.424 44.0356L129.254 47.576L125.831 46.3635L122.305 47.1943L123.508 43.7737L122.678 40.2408L126.1 41.4459L129.627 40.615L128.424 44.0356Z" fill="#3C3C42"/>
<path d="M90.2312 38.1988C90.8783 38.5729 91.7058 38.351 92.0794 37.7032C92.453 37.0553 92.2311 36.2268 91.584 35.8527C90.9368 35.4785 90.1093 35.7004 89.7357 36.3483C89.3622 36.9962 89.584 37.8247 90.2312 38.1988Z" fill="#3C3C42"/>
<path d="M417.172 464.731C417.819 465.106 418.646 464.884 419.02 464.236C419.393 463.588 419.172 462.759 418.524 462.385C417.877 462.011 417.05 462.233 416.676 462.881C416.303 463.529 416.525 464.357 417.172 464.731Z" fill="#3C3C42"/>
<path d="M70.9257 57.6675C72.2236 58.4178 73.8831 57.9728 74.6323 56.6735C75.3814 55.3742 74.9366 53.7127 73.6387 52.9624C72.3408 52.212 70.6813 52.6571 69.9321 53.9564C69.1829 55.2556 69.6278 56.9171 70.9257 57.6675Z" fill="#3C3C42"/>
<path d="M397.867 484.2C399.165 484.95 400.825 484.505 401.574 483.206C402.323 481.907 401.878 480.245 400.58 479.495C399.282 478.745 397.623 479.19 396.874 480.489C396.124 481.788 396.569 483.45 397.867 484.2Z" fill="#3C3C42"/>
<path d="M418.493 485.992C419.791 486.742 421.45 486.297 422.199 484.998C422.949 483.699 422.504 482.037 421.206 481.287C419.908 480.537 418.248 480.982 417.499 482.281C416.75 483.58 417.195 485.242 418.493 485.992Z" fill="#3C3C42"/>
<path d="M155.932 518.412C157.23 519.162 158.89 518.717 159.639 517.418C160.388 516.118 159.943 514.457 158.645 513.707C157.347 512.956 155.688 513.401 154.939 514.701C154.189 516 154.634 517.661 155.932 518.412Z" fill="white"/>
<path fill-rule="evenodd" clip-rule="evenodd" d="M34.6619 271.295C34.0753 266.145 30.4265 262.596 26.5145 263.368C22.6025 264.14 19.9069 268.944 20.4934 274.1L20.6358 275.554L20.7738 276.774C20.8729 277.564 20.9722 278.347 21.0843 279.108C21.3043 280.641 21.5587 282.135 21.8305 283.628C22.3825 286.604 23.0338 289.511 23.7757 292.378C25.2378 298.13 27.101 303.684 29.2403 309.072C33.5577 319.821 39.1734 329.775 45.7767 338.514C49.0892 342.869 52.6518 346.901 56.3912 350.615C56.708 350.919 57.0223 351.231 57.3368 351.543C57.9601 352.161 58.5842 352.78 59.2292 353.346L62.1319 355.952C62.5194 356.272 62.9067 356.594 63.2945 356.917L63.2949 356.917L63.2954 356.918L63.2959 356.918L63.2963 356.918C64.8847 358.24 66.48 359.567 68.1228 360.745C68.4646 360.994 68.8089 361.252 69.1533 361.511L69.1535 361.511L69.1538 361.511L69.1541 361.511L69.1544 361.512C69.8309 362.02 70.5079 362.529 71.1679 362.965C71.5525 363.22 71.9365 363.481 72.3205 363.743L72.3207 363.743C72.9358 364.161 73.5511 364.58 74.1698 364.975C76.1797 366.287 78.1982 367.553 80.2297 368.768C84.2969 371.198 88.4029 373.441 92.5392 375.519C109.101 383.798 126.091 389.613 143.183 393.98C151.736 396.143 160.319 397.977 168.924 399.448C173.228 400.197 177.537 400.845 181.85 401.429C183.592 401.672 185.333 401.886 187.077 402.1L187.121 402.105L187.164 402.11L187.205 402.115L187.856 402.195C188.012 402.214 188.168 402.233 188.324 402.253C188.956 402.32 189.588 402.39 190.22 402.461L190.227 402.461L190.228 402.461L190.23 402.462L190.232 402.462C191.772 402.632 193.313 402.803 194.854 402.94C212.292 404.621 229.898 404.899 247.638 403.502C265.239 402.094 282.971 399.141 300.844 393.713C297.751 396.268 294.616 398.772 291.433 401.197C287.762 404.002 284.032 406.716 280.253 409.356C276.462 411.963 272.636 414.506 268.75 416.925C260.987 421.769 253.029 426.215 244.921 430.23C236.786 434.261 228.613 437.81 220.245 440.751C216.066 442.245 211.839 443.528 207.591 444.715L201.199 446.401C200.502 446.562 199.804 446.728 199.107 446.894C197.664 447.237 196.219 447.581 194.768 447.883C186.172 449.78 177.498 451.211 168.782 452.284C164.425 452.829 160.056 453.272 155.678 453.601C151.301 453.919 146.919 454.112 142.537 454.226C138.154 454.339 133.768 454.351 129.399 454.192C127.212 454.118 125.03 454.022 122.86 453.88C121.773 453.817 120.691 453.738 119.617 453.635L118.017 453.482L116.503 453.317L116.235 453.289C111.939 452.818 108.17 457.025 107.812 462.681C107.471 468.121 110.434 472.924 114.48 473.702L116.304 474.049L118.047 474.35L121.497 474.918C123.792 475.287 126.082 475.605 128.368 475.9C132.944 476.468 137.516 476.984 142.092 477.393C146.673 477.796 151.253 478.114 155.838 478.307C160.427 478.518 165.016 478.711 169.614 478.739C188.005 478.938 206.452 477.518 224.973 474.844C229.605 474.185 234.254 473.492 238.899 472.663C243.566 471.863 248.155 471.017 252.783 470.04C262.022 468.109 271.265 465.872 280.499 463.232C285.114 461.92 289.733 460.517 294.344 459.001C298.959 457.502 303.57 455.895 308.172 454.163C317.372 450.7 326.541 446.765 335.655 442.267C344.76 437.759 353.796 432.637 362.685 426.726C367.132 423.773 371.548 420.628 375.905 417.238C380.278 413.876 384.583 410.248 388.844 406.381C397.358 398.63 405.635 389.834 413.497 379.472C421.3 369.046 428.822 357.139 435.024 342.245C436.577 338.531 438.022 334.602 439.35 330.479C440.691 326.363 441.873 322.002 442.895 317.448C444.927 308.329 446.234 298.25 446.238 287.597C446.247 282.277 445.919 276.854 445.246 271.448C444.918 268.745 444.483 266.06 443.969 263.396C443.469 260.756 442.848 258.059 442.197 255.566C440.075 247.571 437.301 239.996 433.976 233.086C437.051 234.409 440.066 235.862 443.016 237.447C448.921 240.649 454.502 244.499 459.505 249.047C464.543 253.55 468.994 258.774 472.518 264.759C472.823 265.261 473.107 265.772 473.391 266.286L473.392 266.287C473.529 266.535 473.667 266.783 473.807 267.03L474.424 268.189C474.554 268.437 474.679 268.708 474.804 268.981L474.805 268.981C474.874 269.133 474.944 269.284 475.015 269.432C475.8 271.119 476.542 272.862 477.219 274.662C477.909 276.451 478.543 278.302 479.125 280.204C479.716 282.101 480.251 284.048 480.734 286.036C482.662 293.985 483.883 302.582 484.336 311.469C484.784 320.355 484.633 329.525 483.848 338.713C483.482 343.312 482.968 347.917 482.317 352.5C481.985 354.788 481.644 357.082 481.252 359.348C481.058 360.478 480.855 361.608 480.639 362.726L480.311 364.384L479.997 365.918L479.884 366.451C479.061 370.454 480.855 374.571 483.896 375.656C486.539 376.598 489.257 374.923 490.456 371.834L491.18 369.972L491.84 368.206C492.272 367.03 492.69 365.861 493.095 364.685C493.906 362.334 494.683 359.972 495.403 357.576C496.843 352.789 498.142 347.923 499.293 342.96C501.54 333.029 503.261 322.746 504.085 312.099C504.9 301.469 504.948 290.448 503.658 279.324C503.348 276.547 502.951 273.759 502.468 270.983C501.998 268.2 501.433 265.424 500.777 262.67C500.134 259.91 499.388 257.167 498.556 254.459C498.146 253.119 497.697 251.733 497.24 250.336C496.77 248.962 496.287 247.588 495.761 246.254C491.616 235.488 486.022 226.005 479.79 217.828C476.663 213.74 473.35 209.987 469.938 206.506C466.522 203.019 463.003 199.794 459.402 196.824C455.395 193.497 451.289 190.499 447.118 187.745L448.938 188.222C449.522 188.401 450.11 188.575 450.698 188.749L450.699 188.749C452.085 189.159 453.475 189.57 454.834 190.056C456.248 190.509 457.638 191.024 459.029 191.539L459.029 191.539L459.029 191.54L459.029 191.54L459.03 191.54C459.573 191.741 460.116 191.942 460.661 192.14C461.263 192.366 461.856 192.613 462.449 192.86L462.45 192.86C462.808 193.009 463.167 193.159 463.529 193.304L464.965 193.894L466.376 194.536C470.167 196.211 473.85 198.147 477.426 200.305C479.004 201.196 480.52 202.185 482.045 203.18L482.045 203.18L482.045 203.18L482.046 203.181L482.05 203.183L482.376 203.396L482.748 203.638C483.024 203.831 483.299 204.025 483.573 204.219C484.159 204.632 484.745 205.046 485.34 205.444C485.873 205.808 486.389 206.194 486.906 206.58L486.906 206.58L486.906 206.58L486.907 206.581L486.908 206.581L486.908 206.581L486.908 206.582C487.237 206.827 487.565 207.072 487.898 207.312C488.537 207.764 489.144 208.257 489.752 208.751C489.969 208.926 490.185 209.102 490.404 209.277L491.655 210.276C491.905 210.498 492.138 210.736 492.371 210.974C492.508 211.113 492.645 211.253 492.785 211.389L493.906 212.513L494.989 213.683C495.692 214.414 496.355 215.19 497.021 215.969L497.119 216.085C499.91 219.356 502.498 222.905 504.861 226.732C509.584 234.38 513.419 243.165 516.226 252.863C517.645 257.701 518.827 262.755 519.733 267.979C520.691 273.186 521.359 278.569 521.842 284.043C522.8 295.002 522.86 306.358 522.252 317.8C521.946 323.524 521.45 329.27 520.807 335.005C520.475 337.873 520.121 340.74 519.711 343.591C519.504 345.016 519.289 346.435 519.056 347.844L518.366 351.915L518.271 352.483C517.62 356.316 519.453 360.114 522.364 360.966C524.797 361.681 527.216 360.103 528.32 357.326L529.213 355.078C529.498 354.357 529.77 353.641 530.033 352.92C530.559 351.483 531.068 350.041 531.564 348.593C532.551 345.697 533.496 342.779 534.354 339.82C536.097 333.915 537.615 327.879 538.918 321.724C541.531 309.424 543.248 296.631 543.856 283.463C544.123 276.877 544.132 270.205 543.774 263.476C543.412 256.753 542.679 249.979 541.566 243.227C540.44 236.481 538.862 229.781 536.899 223.211C534.924 216.642 532.448 210.276 529.614 204.172C526.789 198.057 523.498 192.299 519.897 186.927C518.995 185.587 518.09 184.247 517.141 182.975L515.726 181.039L514.273 179.171L512.815 177.308L511.4 175.451C511.233 175.234 511.065 175.016 510.898 174.797L510.897 174.796L510.897 174.796C510.116 173.777 509.332 172.754 508.519 171.8C504.646 166.962 500.466 162.67 496.192 158.627C491.892 154.629 487.454 150.933 482.912 147.588C464.737 134.108 445.138 125.307 425.324 119.867C405.479 114.41 385.329 112.496 365.381 113.166L364.928 113.187L364.928 113.187C362.585 113.293 360.24 113.4 357.906 113.587L354.171 113.859L350.449 114.217C345.48 114.694 340.567 115.313 335.508 116.17C325.472 117.874 315.491 120.191 305.61 123.382C305.156 123.527 304.704 123.678 304.253 123.829L304.252 123.829L304.09 123.883C303.944 123.932 303.798 123.981 303.652 124.029L307.396 122.076L316.255 117.641C318.152 116.702 320.058 115.79 321.965 114.878L321.965 114.878L321.965 114.878L321.966 114.878L321.966 114.878L321.967 114.878L321.974 114.874L321.974 114.874L321.975 114.874C323.039 114.365 324.103 113.856 325.165 113.343C337.082 107.704 349.12 102.412 361.257 97.4888C367.33 95.0415 373.42 92.6452 379.532 90.3796C382.586 89.2496 385.648 88.131 388.71 87.0521C391.755 85.979 394.873 84.9058 397.85 83.9461L397.936 83.9177C401.611 82.731 403.858 77.8477 402.956 73.0098C402.115 68.5069 398.842 65.628 395.43 66.2129C392.104 66.775 388.939 67.3769 385.713 68.0129C382.499 68.6432 379.295 69.3132 376.094 70.0003C369.694 71.3801 363.315 72.8849 356.936 74.4521C344.186 77.6149 331.48 81.1751 318.812 85.1159C317.648 85.49 316.483 85.858 315.317 86.2261L315.316 86.2263C313.315 86.8581 311.314 87.49 309.319 88.1537L299.843 91.3449L290.389 94.7178L285.563 96.3815L280.723 98.1305C267.836 102.912 255.082 108.709 242.548 115.682C233.094 120.951 223.761 126.885 214.621 133.654L216.989 131.405C217.499 130.925 218.008 130.44 218.518 129.956L218.52 129.954L218.526 129.947L218.527 129.947L218.527 129.947C220.085 128.464 221.646 126.979 223.256 125.591L226.443 122.763L228.039 121.343L229.656 119.975C238.283 112.638 247.232 105.842 256.432 99.6409L259.887 97.3298L263.38 95.121C265.134 93.9947 266.904 92.9266 268.675 91.8581L268.678 91.8562C269.254 91.5086 269.831 91.1609 270.406 90.8112C272.774 89.4541 275.142 88.114 277.523 86.825C278.355 86.3768 279.19 85.9508 280.024 85.5256L280.025 85.5251L280.027 85.5243C280.386 85.3412 280.745 85.1583 281.103 84.9739C282.28 84.3834 283.523 83.7701 284.609 83.2818L284.756 83.2136C288.629 81.4704 290.695 75.9171 289.371 70.818C288.081 65.8495 284.032 63.1466 280.24 64.623L276.238 66.1902L272.352 67.7744C269.768 68.8192 267.202 69.9151 264.64 71.0281C259.512 73.2256 254.409 75.5309 249.333 77.9385C239.167 82.7196 229.066 87.8585 219.046 93.4913L217.157 94.5248L215.285 95.615L211.542 97.7954C209.507 98.9569 207.493 100.193 205.476 101.432C205.008 101.719 204.54 102.006 204.071 102.293L200.34 104.587L196.64 106.994C196.123 107.33 195.607 107.664 195.09 107.998L195.081 108.004C193.128 109.266 191.17 110.532 189.191 111.917C184.209 115.375 179.262 119.026 174.402 122.996C169.519 126.931 164.701 131.116 159.918 135.562C155.139 140.008 150.421 144.76 145.78 149.882C143.472 152.454 141.152 155.089 138.892 157.877C136.628 160.66 134.411 163.578 132.207 166.599C127.825 172.675 123.602 179.301 119.716 186.717C115.838 194.139 112.302 202.361 109.442 211.577C108.01 216.187 106.772 221.054 105.802 226.164C104.831 231.269 104.046 236.612 103.688 242.154C103.309 247.69 103.231 253.408 103.538 259.189C103.865 264.969 104.581 270.795 105.673 276.519C107.851 287.949 111.642 299.022 116.511 308.737C121.402 318.447 127.264 326.789 133.483 333.71C136.597 337.151 139.793 340.286 143.041 343.114C145.305 345.078 147.587 346.884 149.882 348.57C149.634 348.553 149.386 348.536 149.138 348.52C148.655 348.487 148.172 348.455 147.691 348.417C131.905 347.083 116.218 344.403 101.101 339.627C97.3267 338.423 93.5916 337.089 89.9125 335.596C88.0751 334.852 86.2464 334.062 84.4392 333.239C83.8187 332.969 83.2121 332.676 82.6046 332.382C82.3169 332.243 82.029 332.104 81.7393 331.967L79.1557 330.69C77.8943 330.1 76.6768 329.404 75.4558 328.707C75.0068 328.45 74.5573 328.193 74.1051 327.941L71.6466 326.397C71.1233 326.083 70.6221 325.726 70.1206 325.369L70.1204 325.369L70.1188 325.368C69.8232 325.157 69.5275 324.946 69.227 324.744C66.031 322.479 62.9342 319.952 59.997 317.124C54.1398 311.446 48.8563 304.615 44.5 296.739C42.3349 292.804 40.3422 288.642 38.6687 284.281C37.8234 282.106 37.0384 279.886 36.3526 277.643C36.0162 276.525 35.6841 275.395 35.3951 274.287C35.2688 273.803 35.152 273.331 35.0366 272.865L34.9811 272.641L34.7999 271.857C34.7482 271.641 34.6792 271.284 34.6619 271.295ZM196.653 252.256C196.403 250.853 196.269 249.121 196.338 247.088C196.48 243.011 197.489 237.816 199.279 232.348C199.78 230.797 200.349 229.225 200.966 227.64C200.939 227.797 200.91 227.951 200.881 228.104L200.881 228.106C200.844 228.302 200.807 228.496 200.776 228.697C199.797 234.75 200.164 240.763 201.613 246.203C199.754 248.854 198.27 251.569 197.205 254.328C196.989 253.721 196.795 253.051 196.653 252.256ZM436.158 443.187L436.15 443.199C434.653 444.635 434.329 447.4 435.421 449.365C436.439 451.194 438.319 451.693 439.781 450.603C446.553 445.566 453.139 439.911 459.328 433.33C465.504 426.743 471.314 419.208 476.145 410.236L476.175 410.179C478.103 406.597 477.46 401.628 474.739 399.09C472.017 396.552 468.243 397.398 466.315 400.981C466.182 401.231 466.044 401.526 465.936 401.787C462.628 409.799 458.129 417.3 453.027 424.182C447.916 431.07 442.197 437.373 436.158 443.187ZM52.9792 386.791L52.9922 386.796C61.9634 392.123 71.1675 396.631 80.5096 399.879C89.8432 403.121 99.332 405.097 108.622 405.114C108.864 405.114 109.118 405.132 109.36 405.166C113.229 405.711 116.028 410.282 115.614 415.375C115.2 420.468 111.728 424.154 107.859 423.609L107.812 423.603C97.0935 422.092 86.8586 418.424 77.1498 413.586C67.4324 408.732 58.2153 402.696 49.3994 395.933C47.7 394.615 46.9711 391.788 47.8036 389.363C48.692 386.779 51.0082 385.627 52.9792 386.791ZM532.21 143.398L532.218 143.403C533.81 144.647 535.867 143.954 536.812 141.859C537.7 139.883 537.273 137.35 535.884 136.027C524.545 125.284 512.589 115.483 499.874 107.25C487.164 99.039 473.659 92.3727 459.375 88.5626L459.349 88.5569C455.54 87.5405 451.822 90.7828 451.05 95.8024C450.278 100.816 452.741 105.711 456.554 106.727C456.761 106.784 456.976 106.83 457.179 106.858C470.183 108.755 483.153 113.405 495.708 119.77C508.276 126.147 520.461 134.233 532.21 143.398ZM249.924 502.701L249.933 502.701C271.451 498.079 292.71 491.674 313.188 482.719C323.423 478.239 333.451 473.112 343.143 467.212C352.83 461.307 362.181 454.618 370.979 447.037C371.152 446.89 371.346 446.736 371.527 446.6C375.581 443.659 380.679 445.606 382.909 450.944C385.143 456.281 383.664 462.993 379.61 465.929L379.588 465.946C369.565 473.214 359.174 479.324 348.607 484.514C338.036 489.704 327.283 493.979 316.449 497.545C294.767 504.655 272.762 508.97 250.743 511.457C249.018 511.645 247.431 510.06 247.151 507.772C246.857 505.364 248.099 503.093 249.924 502.701ZM77.7279 164.055L77.8051 163.902L77.9216 163.669C78.9438 161.642 78.5255 158.905 76.9857 157.559C75.5581 156.31 73.6646 156.696 72.582 158.383C72.1507 159.047 71.8316 159.564 71.4865 160.148C71.1458 160.716 70.818 161.284 70.4988 161.858C69.8561 162.999 69.2394 164.157 68.6441 165.327C67.458 167.672 66.341 170.068 65.2929 172.516C63.1968 177.41 61.3766 182.521 59.8196 187.779C56.7228 198.295 54.6612 209.47 53.9151 220.883C53.7214 223.21 53.6542 225.544 53.5868 227.885C53.5717 228.413 53.5565 228.941 53.5398 229.469C53.5406 229.975 53.5401 230.482 53.5397 230.989C53.5376 233.354 53.5354 235.727 53.6562 238.088C53.7071 240.353 53.8781 242.603 54.0495 244.859C54.096 245.471 54.1426 246.083 54.1868 246.697C54.2651 247.629 54.3707 248.551 54.4764 249.475C54.5336 249.975 54.5909 250.475 54.6439 250.978C54.6755 251.252 54.7062 251.527 54.7369 251.801C54.8659 252.953 54.995 254.105 55.1831 255.242C56.7962 266.576 59.4746 277.637 62.9897 288.159L63.0027 288.205C64.8702 293.786 69.8173 296.319 74.0571 293.866C78.2969 291.407 80.2205 284.894 78.3572 279.313C78.2408 278.966 78.107 278.62 77.969 278.296C74.2253 269.631 71.1975 260.483 69.0453 250.961C68.7973 249.977 68.6062 248.977 68.4147 247.975C68.3764 247.774 68.338 247.573 68.2991 247.372C68.2193 246.944 68.1346 246.516 68.0499 246.089C67.8963 245.314 67.7427 244.538 67.6176 243.755C67.5295 243.171 67.4379 242.587 67.3463 242.003C67.0565 240.155 66.766 238.302 66.5825 236.43C66.3209 234.473 66.1665 232.497 66.0117 230.518C65.9725 230.017 65.9334 229.516 65.8924 229.014C65.8677 228.467 65.8405 227.918 65.8133 227.37C65.7168 225.427 65.6202 223.479 65.6337 221.531C65.4999 211.52 66.5265 201.424 68.5622 191.617C69.5888 186.717 70.8654 181.879 72.4138 177.195C73.1901 174.855 74.0312 172.55 74.9327 170.296C75.3898 169.171 75.8557 168.058 76.343 166.974C76.5889 166.429 76.8347 165.889 77.0849 165.367C77.2923 164.92 77.5393 164.429 77.7279 164.055Z" fill="url(#paint0_radial)"/>
<path fill-rule="evenodd" clip-rule="evenodd" d="M334.342 99.2604L334.312 99.2718C332.716 99.7601 331.081 100.294 329.473 100.839C327.86 101.39 326.251 101.969 324.651 102.571C321.45 103.769 318.285 105.075 315.192 106.517L315.179 106.523L315.179 106.523C315.075 106.568 314.972 106.614 314.864 106.648C313.066 107.233 311.25 105.785 310.806 103.417C310.361 101.049 311.461 98.6585 313.26 98.0737C316.628 96.9834 319.993 96.0636 323.361 95.2686C325.043 94.8711 326.73 94.4964 328.416 94.15C330.107 93.8036 331.78 93.4856 333.505 93.1904C334.683 92.9973 335.817 94.0023 336.093 95.5582C336.391 97.2162 335.606 98.88 334.342 99.2604ZM96.2688 348.525L96.299 348.536C121.751 357.042 148.203 359.705 174.37 358.837C200.555 357.894 226.658 353.42 251.842 345.436C264.427 341.433 276.793 336.544 288.732 330.638C295.598 327.243 302.322 323.472 308.813 319.327L308.741 319.361C308.68 319.39 308.619 319.419 308.558 319.448C308.432 319.509 308.306 319.57 308.18 319.631C307.884 319.774 307.587 319.918 307.287 320.054C291.173 327.544 274.373 333.46 256.91 336.447C248.18 337.924 239.295 338.633 230.311 338.253C225.817 338.1 221.305 337.623 216.781 336.913C212.256 336.203 207.723 335.153 203.203 333.79C194.167 331.03 185.14 326.987 176.466 321.053C167.832 315.103 159.477 307.227 152.585 296.853C150.855 294.286 149.238 291.543 147.711 288.71C146.214 285.843 144.834 282.85 143.57 279.772C142.333 276.672 141.22 273.481 140.292 270.199C139.913 268.959 139.593 267.687 139.275 266.416L139.275 266.415L139.174 266.012C139.11 265.759 139.046 265.506 138.981 265.253L138.434 262.738L137.946 260.205C136.7 253.437 136.161 246.503 136.23 239.735C136.324 232.955 137.01 226.334 138.179 220.048C140.508 207.431 144.657 196.183 149.527 186.126C154.396 176.042 160.09 167.121 166.106 158.916C178.192 142.534 192.032 129.418 206.511 118.396C207.805 117.408 209.483 117.811 210.419 119.413C211.437 121.156 211.191 123.649 209.867 124.989L209.858 125C196.988 138.043 185.416 153.21 176.419 170.171C171.933 178.637 168.25 187.699 165.64 196.932C163.035 206.165 161.621 215.625 161.595 224.483C161.573 228.912 161.923 233.188 162.613 237.214C163.277 241.245 164.286 245.033 165.546 248.593C167.918 255.186 171.179 260.847 175.185 265.9C175.162 265.786 175.139 265.672 175.117 265.559C175.055 265.249 174.993 264.942 174.927 264.634L174.426 262.062L174.073 259.444L173.745 256.832C173.72 256.616 173.694 256.4 173.667 256.184C173.587 255.531 173.507 254.877 173.477 254.22C173.365 252.471 173.27 250.728 173.184 248.991C173.136 248.296 173.143 247.604 173.15 246.914L173.15 246.914L173.15 246.913C173.151 246.741 173.153 246.568 173.154 246.396L173.184 243.812L173.232 241.24L173.417 238.713C173.459 238.225 173.496 237.734 173.533 237.244L173.533 237.243L173.533 237.242L173.533 237.241L173.533 237.24L173.533 237.239C173.623 236.049 173.713 234.86 173.866 233.699L174.564 228.821L174.586 228.676L174.607 228.532L174.609 228.52L174.611 228.506L174.611 228.505L174.611 228.504L174.611 228.503L174.611 228.502C174.655 228.204 174.699 227.905 174.75 227.612L174.987 226.436L175.47 224.091C175.929 221.628 176.563 219.313 177.196 217.003L177.196 217.003L177.196 217.002C177.377 216.341 177.558 215.681 177.734 215.017C178.058 213.95 178.404 212.907 178.75 211.865L178.75 211.864L178.757 211.844L178.819 211.657L178.976 211.182C179.025 211.034 179.074 210.885 179.123 210.736L179.831 208.612C179.994 208.15 180.172 207.699 180.349 207.249L180.349 207.247L180.35 207.244L180.455 206.976C180.508 206.842 180.56 206.708 180.611 206.574L182.198 202.531C182.603 201.577 183.026 200.647 183.449 199.717L183.449 199.716C183.608 199.368 183.766 199.02 183.924 198.67C184.761 196.724 185.697 194.914 186.63 193.109L186.631 193.108L186.631 193.108L186.631 193.108C186.948 192.495 187.264 191.882 187.577 191.265C187.969 190.474 188.399 189.733 188.828 188.993C189.065 188.585 189.301 188.177 189.531 187.762C189.736 187.408 189.939 187.051 190.143 186.695L190.147 186.687C190.601 185.893 191.054 185.099 191.523 184.332C196.984 175.429 203.022 167.604 209.371 160.557C222.09 146.492 236.03 135.465 250.436 126.42C251.065 126.04 251.691 125.654 252.316 125.268L252.317 125.268L252.32 125.266L252.32 125.266L252.321 125.266L252.321 125.265C253.5 124.539 254.677 123.814 255.87 123.132L261.348 120.031L266.877 117.147C268.065 116.528 269.267 115.959 270.466 115.391L270.467 115.39C271.128 115.077 271.788 114.765 272.445 114.444C279.894 110.958 287.425 107.931 295.016 105.336C296.754 104.74 298.609 105.881 299.338 108.118C300.144 110.583 299.277 113.445 297.405 114.507L297.375 114.524C290.371 118.493 283.517 122.831 276.858 127.544C276.264 127.979 275.667 128.405 275.071 128.832C274.008 129.592 272.946 130.352 271.902 131.155L267.024 134.909L262.241 138.838C261.209 139.694 260.196 140.586 259.185 141.476L259.184 141.477L259.182 141.479C258.637 141.958 258.094 142.437 257.548 142.909C245.182 153.953 233.753 166.593 224.307 180.8C220.667 186.285 217.341 192.003 214.447 197.88C217.285 194.309 220.218 190.97 223.203 187.83C230.272 180.431 237.729 174.191 245.346 168.66C252.976 163.147 260.796 158.417 268.736 154.266C284.626 146.01 300.985 140.093 317.582 136.175C325.919 134.199 334.144 132.756 342.473 131.717C350.788 130.695 359.13 130.014 367.493 129.906C375.852 129.792 384.223 130.105 392.569 130.968C400.915 131.854 409.239 133.233 417.499 135.198C433.992 139.213 450.278 145.379 465.65 154.663C473.332 159.291 480.789 164.629 487.815 170.92C494.832 177.206 501.509 184.139 507.401 192.594C510.325 196.756 512.999 201.168 515.445 205.745C517.89 210.322 520.111 215.069 522.057 219.98C523.044 222.422 523.963 224.909 524.813 227.43C525.671 229.946 526.473 232.484 527.194 235.067C527.931 237.64 528.582 240.252 529.173 242.892C529.467 244.215 529.751 245.538 530.01 246.878C530.144 247.548 530.264 248.224 530.377 248.911C530.493 249.609 530.592 250.245 530.713 251.052C531.006 253.022 530.251 255.072 528.802 255.935C527.112 256.94 525.128 255.952 524.364 253.726L524.261 253.431L523.704 251.807L523.1 250.109C522.695 248.973 522.268 247.838 521.832 246.714C520.952 244.465 520.017 242.25 519.068 240.053C517.148 235.675 515.087 231.428 512.883 227.351C508.475 219.202 503.515 211.696 497.929 205.325C492.396 199.05 486.073 193.52 479.495 188.795C472.918 184.031 465.969 180.125 458.84 176.871C444.581 170.335 429.545 166.633 414.411 164.89C406.841 164.004 399.229 163.606 391.612 163.68C383.995 163.737 376.374 164.191 368.778 165.094C361.183 165.997 353.6 167.195 346.07 168.836L343.245 169.444L340.428 170.125C339.954 170.241 339.479 170.356 339.004 170.471L339.004 170.471C337.601 170.811 336.198 171.15 334.8 171.528C331.034 172.487 327.355 173.521 323.685 174.69C322.408 175.099 321.14 175.531 319.872 175.962C323.452 175.639 327.032 175.389 330.612 175.241C342.486 174.798 354.364 175.196 366.186 176.542C372.095 177.302 377.991 178.16 383.852 179.398C386.067 179.814 388.277 180.336 390.483 180.858C391.199 181.028 391.914 181.197 392.63 181.362C393.551 181.589 394.473 181.838 395.394 182.086L395.395 182.086L395.395 182.087L395.396 182.087L395.396 182.087L395.397 182.087L395.4 182.088C395.933 182.232 396.466 182.376 396.999 182.515C398.457 182.896 399.906 183.293 401.355 183.753C412.944 187.245 424.391 191.85 435.394 198.13C440.906 201.219 446.315 204.723 451.516 208.771C456.722 212.797 461.777 217.249 466.47 222.405C468.82 224.971 471.089 227.686 473.237 230.576C473.549 231.021 473.865 231.457 474.18 231.893L474.181 231.894L474.181 231.894L474.181 231.895L474.182 231.895L474.182 231.895C474.925 232.923 475.667 233.948 476.351 235.067C476.531 235.35 476.711 235.632 476.891 235.913C477.705 237.183 478.515 238.448 479.254 239.82C482.954 246.327 485.978 253.647 487.746 261.46C488.225 263.578 487.561 265.929 486.042 267.081C484.27 268.422 482.005 267.615 480.987 265.281L480.927 265.14C478.331 259.183 474.971 253.948 471.141 249.348C470.408 248.401 469.597 247.534 468.792 246.671L468.792 246.671L468.791 246.671L468.791 246.67C468.587 246.452 468.384 246.234 468.182 246.015C467.523 245.259 466.798 244.574 466.076 243.891C465.735 243.569 465.395 243.248 465.064 242.92C462.95 240.91 460.746 239.042 458.469 237.316C449.342 230.411 439.336 225.358 429.032 221.547C418.711 217.794 408.105 215.154 397.391 213.501C397.074 213.443 396.755 213.394 396.436 213.345L396.436 213.345L396.435 213.344C396.321 213.327 396.207 213.309 396.093 213.291C396.149 213.339 396.206 213.385 396.263 213.43C396.342 213.494 396.421 213.557 396.498 213.626C402.925 219.231 408.778 226.436 413.479 235.119C415.821 239.468 417.865 244.17 419.543 249.15C419.962 250.365 420.376 251.705 420.755 253.045C421.135 254.385 421.493 255.742 421.808 257.122C422.437 259.876 422.946 262.681 423.321 265.509C423.688 268.342 423.925 271.187 424.042 274.026C424.145 276.865 424.124 279.687 423.999 282.47C423.718 288.04 422.998 293.429 421.98 298.579C419.897 308.868 416.628 318.123 412.785 326.459C410.878 330.644 408.791 334.596 406.617 338.366C404.456 342.154 402.153 345.725 399.794 349.155C395.066 356.014 390.016 362.238 384.78 367.99C379.544 373.748 374.109 379.017 368.558 383.935C363.016 388.869 357.353 393.44 351.616 397.744C345.871 402.031 340.07 406.097 334.213 409.93C331.285 411.849 328.334 413.689 325.38 415.506C322.43 417.328 319.467 419.1 316.491 420.815C292.747 434.721 268.197 445.436 243.276 453.374C241.641 453.896 239.929 452.732 239.338 450.597C238.7 448.309 239.593 445.771 241.335 444.93L241.339 444.925C265.057 433.489 287.994 419.56 309.447 402.82C312.117 400.702 314.765 398.545 317.383 396.342C319.997 394.127 322.572 391.839 325.121 389.522C330.219 384.883 335.197 380.068 339.993 375.008C344.789 369.955 349.443 364.742 353.885 359.331C358.323 353.914 362.576 348.326 366.579 342.597C370.585 336.873 374.333 330.979 377.741 324.988C379.449 321.996 381.04 318.947 382.55 315.909C384.055 312.865 385.414 309.771 386.678 306.71C389.158 300.555 391.094 294.383 392.203 288.46C392.496 286.938 392.729 285.434 392.906 283.952C392.448 285.212 391.974 286.456 391.478 287.66C386.966 298.505 381.256 307.074 375.313 314.313C363.314 328.685 350.288 338.366 337.12 346.305C323.922 354.169 310.465 360.029 296.931 364.748C283.392 369.432 269.745 372.856 256.073 375.292C242.4 377.734 228.689 379.119 215.012 379.738C208.172 380.028 201.331 380.051 194.504 379.937C187.672 379.721 180.853 379.415 174.047 378.745C167.241 378.143 160.452 377.274 153.689 376.206C146.926 375.111 140.193 373.736 133.495 372.129C126.806 370.432 120.142 368.62 113.547 366.377C106.957 364.134 100.422 361.596 93.9829 358.678C92.0334 357.786 90.8775 355.049 91.395 352.369C91.9256 349.519 94.1166 347.804 96.2688 348.525ZM488.03 336.266C488.31 334.721 488.539 332.938 488.716 331.24C488.888 329.52 489.03 327.782 489.112 326.039C489.294 322.558 489.319 319.066 489.22 315.585L489.104 312.979C489.074 312.11 489.017 311.241 488.944 310.378L488.75 307.783L488.483 305.2C488.38 304.031 488.221 302.873 488.062 301.716L488.062 301.716L488.062 301.716C487.986 301.164 487.91 300.613 487.84 300.061C487.685 298.964 487.5 297.875 487.316 296.786C487.215 296.184 487.113 295.582 487.016 294.979L486.982 294.757C486.96 294.615 486.943 294.474 486.93 294.326C486.732 291.901 488.064 289.721 489.91 289.46C491.752 289.198 493.408 290.953 493.607 293.383C493.659 294.028 493.716 294.673 493.773 295.317L493.773 295.318L493.773 295.318L493.773 295.318L493.773 295.318L493.773 295.318L493.773 295.318C493.881 296.528 493.988 297.737 494.064 298.948C494.092 299.527 494.126 300.105 494.159 300.683C494.233 301.963 494.308 303.241 494.323 304.524L494.392 307.312L494.383 310.1C494.387 311.031 494.374 311.957 494.336 312.888L494.241 315.671C494.059 319.378 493.745 323.064 493.266 326.72C493.037 328.549 492.744 330.366 492.416 332.177C492.075 334.006 491.722 335.738 491.213 337.64C490.928 338.685 490.083 339.315 489.246 339.054C488.349 338.77 487.793 337.583 488.008 336.396L488.03 336.266ZM144.45 315.272C143.822 314.795 143.193 314.316 142.604 313.757L139.986 311.417L137.468 308.874C135.829 307.113 134.215 305.285 132.702 303.315C131.166 301.373 129.739 299.283 128.358 297.137C128.298 297.035 128.237 296.934 128.177 296.833C128.135 296.765 128.094 296.696 128.053 296.628L128.011 296.559L127.806 296.22C127.325 295.428 126.844 294.633 126.404 293.809C126.085 293.247 125.779 292.679 125.49 292.1C125.197 291.538 124.904 290.919 124.666 290.408L124.602 290.272C124.097 289.198 123.027 288.863 122.212 289.522C121.457 290.13 121.181 291.373 121.535 292.407C121.802 293.19 122.04 293.849 122.311 294.536C122.57 295.223 122.846 295.893 123.131 296.546C123.542 297.548 123.995 298.512 124.449 299.478L124.454 299.489L124.457 299.496L124.459 299.5C124.606 299.813 124.753 300.126 124.899 300.441C126.159 302.963 127.483 305.438 128.936 307.783C130.364 310.157 131.917 312.4 133.521 314.592L136.001 317.788L138.623 320.792C139.229 321.518 139.879 322.162 140.53 322.807L140.531 322.808C140.807 323.082 141.084 323.356 141.358 323.637C141.585 323.861 141.81 324.089 142.036 324.316C142.736 325.023 143.437 325.73 144.187 326.34L147.116 328.872C147.775 329.422 148.458 329.919 149.141 330.416C149.482 330.664 149.822 330.912 150.161 331.166C151.675 332.364 153.27 333.334 154.87 334.308L154.871 334.308L154.872 334.309L154.873 334.309C155.404 334.632 155.937 334.956 156.467 335.289C157.194 335.773 157.949 336.142 158.707 336.512C159.05 336.68 159.394 336.847 159.736 337.026L163.048 338.667C165.602 339.934 168.448 338.236 169.41 334.874C170.372 331.513 169.082 327.765 166.529 326.499C166.352 326.408 166.175 326.334 165.999 326.277L165.645 326.164L162.63 325.187C162.299 325.071 161.964 324.967 161.628 324.864C160.949 324.654 160.269 324.445 159.62 324.125C159.079 323.883 158.534 323.651 157.988 323.418C156.555 322.808 155.115 322.195 153.741 321.377C153.385 321.177 153.024 320.985 152.664 320.794L152.663 320.794C152.054 320.47 151.444 320.147 150.851 319.776L148.043 317.936C147.341 317.516 146.681 317 146.019 316.484C145.905 316.395 145.791 316.306 145.676 316.218C145.62 316.174 145.563 316.13 145.506 316.086C145.436 316.032 145.366 315.979 145.296 315.926C145.017 315.703 144.733 315.488 144.45 315.272L144.45 315.272ZM52.9224 324.863C53.4529 323.864 54.501 323.626 55.2601 324.324L55.3076 324.369C56.7913 325.744 58.4173 327.095 60.0217 328.367C61.6391 329.639 63.2738 330.865 64.9387 332.024C66.6035 333.176 68.2727 334.301 69.9764 335.334C71.6671 336.39 73.388 337.361 75.1046 338.298L75.1564 338.327C75.2987 338.406 75.4367 338.497 75.5748 338.605C77.1663 339.86 77.6838 342.574 76.7306 344.669C75.7774 346.765 73.7158 347.446 72.1199 346.191C70.4206 344.851 68.7342 343.494 67.0952 342.052C65.4476 340.632 63.8389 339.133 62.2559 337.611C60.673 336.084 59.1246 334.494 57.6064 332.864C56.0839 331.217 54.6218 329.571 53.1467 327.731C52.5472 326.993 52.435 325.772 52.9224 324.863ZM123.043 462.153L123.018 462.147C122.466 462.045 121.957 462.545 121.883 463.271C121.81 463.953 122.151 464.594 122.651 464.748C124.622 465.35 126.554 465.81 128.521 466.224C130.484 466.633 132.45 466.985 134.426 467.263C136.401 467.536 138.381 467.774 140.369 467.922C142.357 468.092 144.35 468.166 146.347 468.211C147.46 468.24 148.374 467.076 148.396 465.611C148.417 464.146 147.533 462.942 146.42 462.914C146.364 462.914 146.308 462.914 146.252 462.919L146.222 462.919C144.298 463.09 142.366 463.237 140.434 463.288C138.502 463.368 136.561 463.351 134.624 463.3C132.683 463.249 130.747 463.118 128.81 462.936C126.882 462.749 124.924 462.505 123.043 462.153ZM210.682 454.663C204.61 456.667 198.442 458.223 192.209 459.325C190.924 459.552 190.023 461.102 190.191 462.794C190.355 464.407 191.45 465.565 192.667 465.469C199.11 464.935 205.55 463.924 211.937 462.431L211.942 462.431C213.585 462.045 214.676 459.983 214.387 457.826C214.094 455.662 212.528 454.226 210.889 454.606L210.864 454.612C210.803 454.627 210.739 454.643 210.682 454.663Z" fill="url(#paint1_radial)"/>
<path fill-rule="evenodd" clip-rule="evenodd" d="M363.215 152.27C363.232 152.268 363.25 152.267 363.263 152.267C379.243 150.609 395.339 150.643 411.28 152.801L411.284 152.801C412.76 153.005 414.075 151.591 414.226 149.655C414.377 147.753 413.342 146.044 411.91 145.794C395.65 142.989 379.195 142.353 362.823 143.46C360.972 143.585 359.553 145.663 359.648 148.094C359.743 150.529 361.322 152.398 363.168 152.273C363.181 152.273 363.198 152.271 363.215 152.27ZM219.002 173.386C225.588 163.972 232.951 155.363 240.783 147.488C241.37 146.897 241.486 145.79 241.042 145.006C240.624 144.279 239.86 144.103 239.282 144.558C230.712 151.315 222.466 158.946 214.805 167.68C213.542 169.116 213.404 171.626 214.495 173.29C215.586 174.953 217.493 175.135 218.756 173.699C218.843 173.602 218.924 173.494 219.002 173.386ZM160.949 189.732L160.948 189.733C160.91 189.835 160.871 189.937 160.824 190.033C160.138 191.481 158.693 191.93 157.589 191.027C156.485 190.124 156.148 188.222 156.834 186.768L156.838 186.763C160.099 179.846 163.813 173.396 167.824 167.349C168.268 166.679 169.036 166.542 169.601 167.059C170.209 167.615 170.36 168.717 169.933 169.518C166.525 175.98 163.48 182.725 160.949 189.732ZM155.035 207.301C153.349 214.79 152.37 222.502 152.335 230.15C152.335 230.241 152.331 230.349 152.327 230.44C152.193 232.626 150.739 234.261 149.079 234.085C147.418 233.909 146.176 231.996 146.31 229.809L146.31 229.792C146.823 221.32 148.359 213.093 150.588 205.319C151.02 203.826 152.266 202.985 153.452 203.451C154.695 203.934 155.402 205.654 155.035 207.289L155.035 207.301ZM232.528 361.205C241.926 359.473 251.273 357.287 260.529 354.612C260.537 354.609 260.55 354.606 260.563 354.604L260.579 354.6L260.588 354.598C260.592 354.597 260.595 354.596 260.598 354.595C262.232 354.175 263.815 355.577 264.134 357.729C264.454 359.882 263.388 361.965 261.754 362.386C252.291 364.816 242.767 366.741 233.205 368.206C231.765 368.422 230.445 367.093 230.242 365.191C230.039 363.26 231.062 361.477 232.528 361.205ZM153.145 365.179C152.222 365.105 151.429 366.025 151.368 367.24C151.308 368.433 151.981 369.461 152.869 369.574C171.907 372.044 191.096 372.481 210.229 371.181C211.709 371.079 212.847 369.421 212.77 367.473C212.692 365.526 211.433 364.027 209.953 364.129C209.94 364.132 209.923 364.133 209.906 364.134L209.906 364.134L209.886 364.136C209.876 364.137 209.866 364.138 209.858 364.14C191.027 366.298 172.05 366.746 153.145 365.179ZM363.447 364.731L363.452 364.725C371.642 355.469 379.328 345.464 386.009 334.511L386.022 334.494C386.03 334.482 386.038 334.469 386.046 334.456L386.046 334.455L386.061 334.432L386.067 334.423L386.078 334.405C386.087 334.393 386.095 334.381 386.104 334.369C387.32 332.535 389.438 332.342 390.831 333.943C392.224 335.544 392.371 338.332 391.155 340.167C383.788 351.279 375.537 361.148 366.859 370.176C365.738 371.34 364.103 371.147 363.163 369.705C362.192 368.223 362.322 365.997 363.447 364.731ZM340.072 387.109C325.416 400.123 309.872 411.497 293.823 421.502C292.986 422.025 292.628 423.336 293.025 424.443C293.408 425.517 294.375 425.988 295.198 425.528C311.657 416.238 327.702 405.535 342.987 393.031C344.247 392.004 344.631 389.829 343.85 388.171C343.069 386.513 341.417 386.007 340.158 387.035C340.146 387.045 340.133 387.057 340.119 387.068L340.115 387.072L340.084 387.099L340.072 387.109ZM449.553 162.556C443.04 160.137 436.429 158.207 429.769 156.708C429.713 156.696 429.653 156.679 429.597 156.662C428.156 156.208 427.268 154.3 427.613 152.409C427.958 150.513 429.407 149.343 430.843 149.797C437.584 151.921 444.244 154.476 450.77 157.52C451.757 157.985 452.322 159.388 452.033 160.739C451.736 162.142 450.623 162.959 449.553 162.556ZM426.69 203.19C435.89 207.471 444.865 212.684 453.276 219.225C454.173 219.929 454.527 221.44 454.052 222.689C453.556 223.995 452.349 224.529 451.357 223.876L451.352 223.87C442.907 218.311 433.979 214.081 424.883 210.764C424.818 210.742 424.745 210.713 424.68 210.679C423.11 209.947 422.286 207.681 422.843 205.609C423.395 203.542 425.12 202.457 426.69 203.19ZM321.806 326.391C309.798 334.653 297.083 341.433 284.045 347.02C282.458 347.702 281.591 349.939 282.104 352.028C282.596 354.022 284.179 355.146 285.697 354.658C292.49 352.454 299.227 349.922 305.917 347.088C312.606 344.249 319.231 341.064 325.752 337.43C332.274 333.796 338.687 329.707 344.928 325.034C351.152 320.332 357.238 315.108 362.944 308.925C368.633 302.747 374.003 295.638 378.385 287.029C380.567 282.725 382.482 278.035 383.958 272.964C385.42 267.888 386.412 262.425 386.757 256.798C386.929 253.982 386.947 251.165 386.783 248.304C386.619 245.442 386.278 242.523 385.709 239.604C385.402 238.003 385.006 236.402 384.548 234.818C389.31 238.9 393.485 243.926 396.746 249.939C397.876 252.006 398.889 254.186 399.817 256.452L400.49 258.167L401.115 259.921C401.503 261.051 401.835 262.147 402.137 263.328C403.353 268.007 404 273.22 404.164 278.501C404.294 283.787 404.048 289.181 403.28 294.417C402.5 299.629 401.296 304.791 399.364 309.152L399.325 309.237C398.484 311.134 398.971 313.57 400.412 314.677C401.723 315.682 403.375 315.239 404.294 313.717C405.838 311.168 407.076 308.414 408.111 305.586C409.168 302.758 409.991 299.834 410.681 296.87C412.057 290.942 412.868 284.815 413.088 278.586C413.287 272.362 413.01 265.997 411.764 259.609C411.458 258.025 411.065 256.395 410.634 254.856L409.987 252.63L409.275 250.433C408.292 247.514 407.136 244.681 405.842 241.955C403.263 236.493 400.054 231.519 396.431 227.232C392.825 222.916 388.81 219.288 384.63 216.255C376.246 210.18 367.249 206.426 358.256 203.951C353.77 202.735 349.332 201.759 344.821 201.015C343.16 200.737 341.491 200.498 339.822 200.282C345.683 199.698 351.562 199.323 357.445 199.198C371.437 198.897 385.467 199.965 399.342 202.622L399.355 202.622C401.007 202.94 402.534 201.435 402.776 199.266C403.004 197.182 401.947 195.234 400.399 194.809C386.308 190.981 371.963 188.767 357.566 187.955C343.169 187.149 328.711 187.677 314.318 189.59C311.135 189.977 307.962 190.505 304.784 191.034C304.366 191.104 303.949 191.173 303.531 191.243C302.942 191.358 302.352 191.472 301.762 191.586C298.769 192.164 295.771 192.743 292.788 193.469C285.641 195.132 278.511 197.091 271.459 199.55C259.646 203.644 247.962 208.794 236.644 215.489C242.01 208.777 248 202.684 254.349 197.222C259.861 192.475 265.654 188.176 271.615 184.236C277.567 180.267 283.713 176.706 289.975 173.475C296.238 170.25 302.63 167.383 309.091 164.754C315.556 162.142 322.117 159.876 328.733 157.854L328.741 157.849C330.549 157.298 331.67 154.925 331.252 152.551C330.859 150.325 329.237 148.889 327.551 149.172C320.65 150.353 313.779 151.96 306.952 153.897C300.12 155.816 293.344 158.167 286.637 160.887C279.93 163.612 273.284 166.707 266.754 170.29C260.237 173.901 253.836 178.001 247.612 182.651C241.393 187.308 235.35 192.532 229.631 198.5C223.908 204.45 218.533 211.202 213.802 218.873L212.09 221.826C211.906 222.153 211.717 222.474 211.529 222.795C211.141 223.455 210.754 224.114 210.412 224.824L208.825 227.93L208.035 229.486L207.306 231.104C207.117 231.54 206.925 231.974 206.734 232.408C205.967 234.147 205.2 235.885 204.555 237.725L203.287 241.126C202.972 242.051 202.682 242.999 202.392 243.944C202.321 244.177 202.25 244.409 202.178 244.641C201.035 248.366 200.082 252.21 199.323 256.128C199.112 255.492 198.909 254.845 198.719 254.198C198.025 251.824 197.455 249.365 197.02 246.839C196.149 241.785 195.855 236.442 196.105 230.996C196.606 220.077 199.392 208.868 203.558 198.363L203.571 198.329C204.469 196.069 203.804 193.276 202.088 192.094C200.587 191.061 198.78 191.6 197.749 193.258C194.661 198.216 191.827 203.565 189.394 209.351C186.97 215.137 184.935 221.366 183.541 228.015C182.148 234.647 181.372 241.694 181.437 248.866C181.467 252.449 181.695 256.06 182.122 259.643C182.338 261.437 182.601 263.215 182.916 264.998C183.265 266.809 183.649 268.62 184.124 270.42C185.961 277.632 188.972 284.627 192.871 290.618C194.863 293.69 197.072 296.478 199.422 298.988C197.628 298.352 195.847 297.67 194.078 296.915C191.779 295.904 189.511 294.792 187.277 293.559C182.834 291.038 178.538 288.057 174.544 284.485C170.529 280.948 166.85 276.774 163.568 272.09C160.294 267.394 157.49 262.119 155.217 256.412L155.2 256.372C154.51 254.646 152.888 253.976 151.577 254.885C150.352 255.731 149.835 257.661 150.331 259.319C152.319 265.884 154.959 272.164 158.193 277.887C161.428 283.611 165.198 288.829 169.343 293.446C173.479 298.091 177.99 302.117 182.705 305.643C185.064 307.397 187.475 309.033 189.925 310.554C192.383 312.048 194.876 313.439 197.404 314.717C207.526 319.782 218.145 322.859 228.829 324.364C239.525 325.84 250.282 325.732 260.94 324.597C271.593 323.37 282.151 320.917 292.442 317.266C295.017 316.358 297.571 315.364 300.115 314.33C302.652 313.269 305.17 312.127 307.676 310.958C312.688 308.601 317.583 305.881 322.466 303.099C332.205 297.455 341.663 290.601 350.372 282.055C354.711 277.762 358.864 273.055 362.642 267.735C364.514 265.054 366.321 262.261 367.973 259.257C368.793 257.735 369.582 256.185 370.333 254.555C370.335 254.549 370.339 254.54 370.343 254.531C370.346 254.526 370.348 254.52 370.35 254.516C370.367 254.953 370.376 255.396 370.38 255.833C370.414 259.314 370.044 262.868 369.297 266.429C368.534 269.983 367.408 273.532 365.972 276.996C363.099 283.929 359.058 290.459 354.452 296.421C349.828 302.383 344.648 307.852 339.136 312.797C333.62 317.749 327.805 322.263 321.806 326.391Z" fill="url(#paint2_radial)"/>
<path d="M211.777 287.62L211.867 287.677C216.241 290.465 221.123 292.27 226.092 293.497C231.078 294.701 236.18 295.354 241.296 295.615C246.415 295.87 251.556 295.734 256.685 295.303C261.813 294.865 266.928 294.161 272 293.105C272.151 293.077 272.302 293.037 272.449 293.009C268.369 292.872 264.267 292.475 260.139 291.714C257.219 291.169 254.287 290.442 251.323 289.437C248.36 288.421 245.367 287.166 242.3 285.28C240.774 284.355 239.221 283.248 237.651 281.851C236.09 280.448 234.494 278.796 232.98 276.479C231.488 274.191 230.056 271.142 229.378 267.473C229.236 266.576 229.09 265.588 229.025 264.748C228.986 263.976 228.96 263.198 228.943 262.42C228.908 261.642 228.986 260.887 229.029 260.126C229.085 259.37 229.128 258.598 229.262 257.888C229.374 257.167 229.499 256.446 229.629 255.731C229.78 255.044 229.961 254.391 230.138 253.721L230.409 252.733L230.724 251.818L231.384 250.013C232.337 247.775 233.394 245.72 234.537 243.994C236.806 240.468 239.268 237.736 241.761 235.351C246.769 230.61 251.966 227.237 257.219 224.353C262.477 221.513 267.799 219.231 273.165 217.363C278.526 215.477 283.926 213.99 289.348 212.843C294.769 211.696 300.208 210.833 305.664 210.322C316.563 209.226 327.536 209.379 338.426 211.071C343.869 211.94 349.3 213.24 354.648 215.216C359.979 217.232 365.28 219.89 370.162 224.097C371.434 225.199 371.87 227.43 371.111 229.208C370.322 231.064 368.536 231.729 367.121 230.69L367.018 230.61C362.808 227.51 357.943 225.494 352.979 224.108C347.993 222.74 342.864 221.985 337.715 221.638C327.406 220.985 317.007 221.769 306.768 223.745C306.203 223.847 305.642 223.972 305.082 224.086C308.864 224.216 312.66 224.58 316.481 225.25C319.375 225.761 322.278 226.442 325.215 227.402C328.148 228.361 331.116 229.577 334.135 231.291C335.653 232.2 337.175 233.171 338.724 234.449C340.272 235.738 341.847 237.248 343.378 239.286C344.892 241.308 346.414 243.96 347.376 247.367C347.596 248.235 347.829 249.087 347.967 249.996C348.036 250.45 348.101 250.91 348.157 251.364L348.239 252.051C348.256 252.261 348.26 252.437 348.273 252.636C348.308 253.403 348.333 254.175 348.342 254.941C348.351 255.708 348.277 256.452 348.23 257.207L348.139 258.331C348.096 258.7 348.036 259.053 347.98 259.41C347.863 260.126 347.747 260.841 347.604 261.54C347.268 262.846 346.949 264.237 346.496 265.389C346.28 265.986 346.065 266.593 345.836 267.167L345.107 268.785L344.736 269.586L344.344 270.318L343.542 271.766C341.355 275.485 338.927 278.285 336.472 280.766C334.01 283.231 331.482 285.275 328.929 287.12C326.375 288.949 323.796 290.601 321.195 292.038C315.994 294.956 310.719 297.262 305.405 299.198C294.778 303.019 283.999 305.359 273.191 306.511C267.791 307.13 262.365 307.38 256.943 307.346C251.522 307.306 246.1 306.949 240.692 306.188C235.287 305.41 229.9 304.229 224.578 302.434C219.269 300.6 213.998 298.17 209.042 294.428C207.722 293.429 207.188 291.231 207.865 289.403C208.568 287.489 210.323 286.689 211.777 287.62Z" fill="#8257E6"/>
<path d="M371.293 284.332C372.828 281.766 374.178 278.563 375.27 275.36C376.37 272.13 377.254 268.774 377.853 265.372C378.435 261.971 378.724 258.519 378.608 255.169C378.492 251.818 377.952 248.582 376.952 245.658L376.93 245.595C376.917 245.561 376.909 245.521 376.896 245.487C376.339 243.681 376.995 241.62 378.366 240.888C379.738 240.155 381.304 241.018 381.86 242.824C383.076 246.753 383.616 250.938 383.628 255.01C383.646 259.092 383.176 263.073 382.399 266.883C381.606 270.687 380.514 274.333 379.203 277.825C377.866 281.323 376.391 284.627 374.334 287.802C373.635 288.875 372.41 289.045 371.56 288.159C370.689 287.256 370.543 285.593 371.228 284.446L371.293 284.332Z" fill="#8257E6"/>
<path d="M226.566 216.761C225.337 218.686 224.194 220.889 223.155 223.155C222.111 225.426 221.158 227.782 220.3 230.19C218.587 235.005 217.25 240.03 216.448 245.095C215.646 250.149 215.404 255.276 216.034 260.012C216.642 264.759 218.139 269.024 220.407 272.51C220.468 272.601 220.532 272.709 220.589 272.805C221.943 275.202 221.559 278.591 219.739 280.374C217.919 282.157 215.344 281.652 213.989 279.256L213.981 279.239C212.497 276.604 211.277 273.697 210.401 270.648C209.521 267.598 208.982 264.424 208.74 261.273C208.253 254.947 208.922 248.798 210.134 243.063C211.359 237.31 213.136 231.905 215.275 226.806C216.349 224.256 217.513 221.786 218.786 219.396C220.062 217.005 221.425 214.7 223.038 212.496C223.905 211.315 225.337 211.202 226.303 212.275C227.317 213.394 227.446 215.387 226.592 216.715L226.566 216.761Z" fill="#8257E6"/>
<path d="M186.713 246.594C186.717 245.686 186.696 244.783 186.722 243.875C186.739 242.966 186.769 242.063 186.825 241.155C186.877 240.235 186.946 239.366 187.058 238.367C187.188 237.231 187.96 236.396 188.844 236.487C189.767 236.578 190.457 237.64 190.384 238.855L190.375 238.969C190.332 239.69 190.302 240.558 190.297 241.376C190.284 242.205 190.297 243.034 190.323 243.869C190.336 244.698 190.401 245.533 190.435 246.362L190.634 248.843C190.957 252.142 191.518 255.384 192.299 258.496C192.51 259.268 192.669 260.063 192.924 260.807L193.64 263.061C193.89 263.805 194.196 264.509 194.468 265.236L194.886 266.315L195.374 267.343C195.702 268.024 196.012 268.711 196.349 269.381L197.453 271.295C197.638 271.607 197.811 271.942 198.009 272.243L198.626 273.118L199.851 274.872L200.028 275.122C200.062 275.173 200.097 275.224 200.127 275.275C201.063 276.786 200.89 279.012 199.739 280.244C198.591 281.476 196.901 281.249 195.965 279.733L194.606 277.535L193.933 276.439C193.718 276.065 193.532 275.661 193.329 275.275L192.152 272.925C191.798 272.113 191.47 271.284 191.13 270.46L190.629 269.228L190.207 267.95C189.931 267.093 189.629 266.253 189.383 265.39L188.693 262.772C188.451 261.903 188.309 261 188.115 260.12C187.412 256.565 186.968 252.948 186.791 249.331L186.713 246.594Z" fill="#8257E6"/>
<path d="M291.332 202.213L291.302 202.224C288.274 203.11 285.208 204.183 282.197 205.336C279.182 206.494 276.193 207.772 273.243 209.158C270.297 210.549 267.403 212.099 264.565 213.768C261.74 215.466 259.001 217.351 256.379 219.413L256.331 219.452C256.306 219.475 256.275 219.498 256.245 219.515C255.107 220.321 253.683 219.765 253.066 218.26C252.454 216.761 252.877 214.887 254.02 214.075C256.922 212.014 259.885 210.214 262.896 208.618C265.915 207.062 268.96 205.643 272.035 204.399C275.111 203.161 278.212 202.043 281.326 201.049C284.448 200.055 287.558 199.17 290.758 198.437C291.526 198.261 292.268 198.908 292.441 199.919C292.617 200.952 292.121 201.98 291.332 202.213Z" fill="#8257E6"/>
<path d="M355.454 306.75L355.467 306.739C356.925 305.274 358.34 303.706 359.69 302.054C360.367 301.231 361.035 300.385 361.682 299.522C362.329 298.664 362.981 297.767 363.567 296.904L363.589 296.876C363.606 296.853 363.623 296.824 363.641 296.802C364.292 295.933 365.353 295.927 366.008 296.785C366.668 297.642 366.673 299.039 366.021 299.902C365.31 300.85 364.62 301.708 363.899 302.571C363.183 303.428 362.455 304.269 361.713 305.086C360.233 306.727 358.689 308.277 357.085 309.731C356.477 310.282 355.636 310.112 355.183 309.328C354.721 308.516 354.838 307.363 355.454 306.75Z" fill="#8257E6"/>
<path d="M318.673 197.205L318.664 197.205C316.771 197.245 314.869 197.409 312.975 197.687C312.026 197.824 311.082 197.983 310.137 198.17C309.201 198.358 308.244 198.568 307.342 198.8L307.316 198.806C307.303 198.812 307.286 198.812 307.269 198.817C306.54 198.971 305.85 198.318 305.734 197.352C305.617 196.393 306.113 195.484 306.846 195.331C307.856 195.121 308.817 194.956 309.805 194.814C310.784 194.672 311.767 194.553 312.751 194.462C314.718 194.275 316.693 194.201 318.677 194.264C319.272 194.281 319.76 194.916 319.768 195.711C319.781 196.523 319.29 197.193 318.673 197.205Z" fill="#8257E6"/>
<path d="M241.504 314.688L241.538 314.694C243.786 314.898 246.033 315.063 248.288 315.052C250.54 315.063 252.796 314.989 255.047 314.807C257.299 314.637 259.546 314.393 261.784 314.052C264.01 313.717 266.278 313.308 268.413 312.797L268.461 312.786C268.517 312.775 268.569 312.763 268.625 312.758C269.914 312.576 271.07 313.802 271.208 315.5C271.346 317.198 270.415 318.72 269.125 318.901C266.727 319.242 264.441 319.424 262.099 319.549C259.774 319.674 257.445 319.702 255.12 319.657C252.796 319.617 250.471 319.475 248.15 319.236C245.83 319.026 243.518 318.629 241.215 318.197C240.529 318.067 240.02 317.255 240.068 316.329C240.128 315.358 240.766 314.626 241.504 314.688Z" fill="#8257E6"/>
<path d="M356.175 241.654C354.899 239.701 353.303 238.088 351.556 236.845C349.809 235.601 347.894 234.704 346.018 234.267L345.979 234.261C345.923 234.25 345.867 234.233 345.807 234.21C344.552 233.784 343.797 232.098 344.12 230.445C344.444 228.793 345.725 227.799 346.98 228.225C349.426 229.054 351.651 230.383 353.704 232.115C355.748 233.852 357.603 236.027 359.07 238.65C360.536 241.262 361.571 244.346 361.99 247.537C362.421 250.728 362.248 253.953 361.752 256.991C361.606 257.877 360.959 258.49 360.264 258.365C359.531 258.235 359.018 257.349 359.117 256.384L359.126 256.31C359.402 253.618 359.371 250.927 358.88 248.417C358.392 245.902 357.452 243.602 356.175 241.654Z" fill="#8257E6"/>
<path d="M252.657 187.972L252.635 187.989C251.069 189.147 249.487 190.419 247.955 191.714C246.42 193.014 244.906 194.36 243.435 195.763C240.507 198.568 237.695 201.605 235.409 204.961L235.387 204.995C235.34 205.064 235.292 205.132 235.236 205.194C234.287 206.358 232.799 206.284 231.919 205.029C231.035 203.78 231.091 201.821 232.044 200.663C234.982 197.074 238.16 194.28 241.412 191.708C243.043 190.436 244.695 189.233 246.364 188.091C248.042 186.944 249.707 185.86 251.453 184.832C252.079 184.463 252.829 184.775 253.17 185.576C253.532 186.416 253.304 187.495 252.657 187.972Z" fill="#8257E6"/>
<path d="M240.336 262.34C240.306 261.608 240.288 260.881 240.345 260.16C240.383 259.439 240.413 258.712 240.53 258.019C240.888 255.203 241.66 252.625 242.626 250.353C244.597 245.828 247.207 242.37 249.932 239.4C252.689 236.47 255.617 234.028 258.623 231.893C264.644 227.64 270.967 224.585 277.385 222.212C283.812 219.867 290.346 218.265 296.915 217.26C297.838 217.124 298.701 217.942 298.873 219.163C299.054 220.435 298.416 221.661 297.445 221.9L297.437 221.9C291.11 223.444 284.877 225.568 278.86 228.361C272.857 231.178 267.03 234.63 261.759 238.991C259.132 241.177 256.652 243.591 254.466 246.259C253.4 247.616 252.374 249.002 251.502 250.473C250.64 251.943 249.889 253.459 249.329 254.987C248.785 256.514 248.453 258.042 248.358 259.478C248.306 259.842 248.332 260.188 248.328 260.54C248.311 260.892 248.35 261.233 248.384 261.568C248.401 261.733 248.406 261.92 248.427 262.062C248.457 262.181 248.479 262.3 248.501 262.42C248.509 262.539 248.565 262.652 248.595 262.766C248.634 262.88 248.643 262.999 248.703 263.112C249.044 264.146 249.851 265.242 250.924 266.235C250.946 265.071 251.032 263.924 251.213 262.84C251.511 261 251.977 259.285 252.546 257.809C253.681 254.811 255.108 252.483 256.57 250.552C259.52 246.691 262.673 244.09 265.848 241.893C269.031 239.712 272.266 238.032 275.531 236.646C278.796 235.255 282.091 234.204 285.403 233.375C292.028 231.768 298.722 231.087 305.468 231.513C308.841 231.734 312.222 232.251 315.595 233.177C318.968 234.136 322.349 235.454 325.662 237.674C327.314 238.798 328.953 240.167 330.488 241.995C331.256 242.892 331.98 243.965 332.64 245.135C333.287 246.344 333.869 247.679 334.275 249.172C334.473 249.91 334.646 250.683 334.754 251.466L334.896 252.647C334.926 253.022 334.93 253.357 334.943 253.715C334.969 254.419 334.991 255.123 334.935 255.816C334.896 256.514 334.87 257.213 334.762 257.877C334.422 260.591 333.693 263.095 332.765 265.287C331.829 267.479 330.721 269.41 329.535 271.176C328.34 272.924 327.059 274.475 325.739 275.934C323.082 278.79 320.257 281.164 317.355 283.248C311.545 287.387 305.429 290.362 299.222 292.673C293.012 294.956 286.689 296.512 280.335 297.477C279.447 297.608 278.615 296.819 278.446 295.643C278.274 294.417 278.891 293.236 279.822 293.003L279.831 293.003C285.951 291.509 291.976 289.454 297.79 286.745C303.592 284.014 309.225 280.664 314.31 276.417C316.841 274.293 319.235 271.948 321.34 269.353C322.371 268.041 323.346 266.684 324.191 265.259C325.019 263.834 325.739 262.357 326.27 260.875C326.796 259.393 327.107 257.905 327.197 256.514C327.245 256.162 327.219 255.822 327.223 255.481C327.24 255.14 327.201 254.805 327.167 254.476C327.15 254.317 327.145 254.129 327.124 253.993C327.094 253.874 327.072 253.76 327.05 253.641C327.029 253.527 326.999 253.42 326.969 253.312C326.654 255.066 326.201 256.702 325.644 258.116C324.458 261.216 322.97 263.601 321.448 265.594C318.381 269.563 315.12 272.232 311.834 274.486C308.543 276.723 305.196 278.449 301.819 279.875C298.446 281.306 295.034 282.384 291.614 283.236C284.769 284.894 277.851 285.598 270.877 285.178C267.392 284.957 263.898 284.434 260.409 283.492C256.92 282.509 253.422 281.175 249.989 278.904C248.276 277.757 246.573 276.354 244.981 274.48C244.183 273.566 243.428 272.453 242.734 271.249C242.061 269.994 241.449 268.62 241.022 267.07C240.901 266.701 240.828 266.287 240.737 265.895C240.655 265.497 240.56 265.105 240.517 264.691L240.37 263.464C240.353 263.061 240.349 262.709 240.336 262.34Z" fill="#C6ADFF"/>
<path d="M329.526 218.339L329.518 218.339C326.865 218.22 324.208 218.271 321.556 218.459C320.227 218.549 318.903 218.669 317.579 218.822C316.264 218.975 314.922 219.157 313.646 219.373L313.624 219.378C313.581 219.384 313.534 219.39 313.49 219.396C312.567 219.452 311.782 218.51 311.739 217.295C311.696 216.079 312.412 215.046 313.335 214.989C314.733 214.904 316.078 214.87 317.446 214.864C318.808 214.853 320.167 214.881 321.53 214.938C324.252 215.046 326.973 215.29 329.682 215.71C330.195 215.79 330.587 216.38 330.57 217.067C330.549 217.794 330.083 218.368 329.526 218.339Z" fill="#C6ADFF"/>
<path d="M261.114 262.741C259.94 254.262 271.295 244.435 286.476 240.791C301.657 237.146 314.915 241.064 316.09 249.543C317.264 258.021 305.909 267.848 290.728 271.493C275.547 275.137 262.289 271.219 261.114 262.741Z" fill="#E2D6FF"/>
<path d="M271.233 258.576C270.544 253.607 277.711 247.721 287.241 245.43C296.771 243.14 305.055 245.311 305.744 250.281C306.434 255.251 299.267 261.137 289.737 263.427C280.207 265.718 271.923 263.546 271.233 258.576Z" fill="#121214"/>
<defs>
<radialGradient id="paint0_radial" cx="0" cy="0" r="1" gradientUnits="userSpaceOnUse" gradientTransform="translate(287.974 253.674) rotate(90) scale(286.95 472.968)">
<stop stop-color="#2D264A"/>
<stop offset="0.484375" stop-color="#2D264A" stop-opacity="0.8"/>
<stop offset="0.703125" stop-color="#2D264A" stop-opacity="0.3"/>
<stop offset="0.989583" stop-color="#2D264A" stop-opacity="0"/>
</radialGradient>
<radialGradient id="paint1_radial" cx="0" cy="0" r="1" gradientUnits="userSpaceOnUse" gradientTransform="translate(264.891 251.974) rotate(98.3843) scale(228.072 294.298)">
<stop stop-color="#8257E6"/>
<stop offset="1" stop-color="#8257E6" stop-opacity="0"/>
</radialGradient>
<radialGradient id="paint2_radial" cx="0" cy="0" r="1" gradientUnits="userSpaceOnUse" gradientTransform="translate(286.386 251.664) rotate(88.0293) scale(155.036 168.938)">
<stop stop-color="#C6ADFF"/>
<stop offset="1" stop-color="#C6ADFF" stop-opacity="0"/>
</radialGradient>
</defs>
</svg>